<mxfile host="app.diagrams.net" modified="2023-04-30T04:01:02.581Z" agent="Mozilla/5.0 (Macintosh; Intel Mac OS X 10_15_7) AppleWebKit/537.36 (KHTML, like Gecko) Chrome/112.0.0.0 Safari/537.36" etag="BrckrNbndPrr2kPam_Ms" version="21.2.3" type="device">
  <diagram name="Page-1" id="OZrbYTSwZMLTt63ltpot">
    <mxGraphModel dx="711" dy="1619" grid="1" gridSize="10" guides="1" tooltips="1" connect="1" arrows="1" fold="1" page="1" pageScale="1" pageWidth="827" pageHeight="1169" math="0" shadow="0">
      <root>
        <mxCell id="0" />
        <mxCell id="1" parent="0" />
        <mxCell id="2d90y7z-7FwRkJ-Qai8M-1" value="&lt;font size=&quot;1&quot; face=&quot;Times New Roman&quot;&gt;&lt;b style=&quot;font-size: 15px;&quot;&gt;1.0&lt;/b&gt;&lt;/font&gt;" style="ellipse;whiteSpace=wrap;html=1;fillColor=#dae8fc;strokeColor=#6c8ebf;strokeWidth=2;align=center;verticalAlign=middle;spacing=0;spacingTop=-4;" vertex="1" parent="1">
          <mxGeometry x="290" y="-540" width="40" height="40" as="geometry" />
        </mxCell>
        <mxCell id="2d90y7z-7FwRkJ-Qai8M-2" value="&lt;font size=&quot;1&quot; face=&quot;Times New Roman&quot;&gt;&lt;b style=&quot;font-size: 15px;&quot;&gt;1.1&lt;/b&gt;&lt;/font&gt;" style="ellipse;whiteSpace=wrap;html=1;fillColor=#ffe6cc;strokeColor=#d79b00;strokeWidth=2;align=center;verticalAlign=middle;spacing=0;spacingTop=-4;" vertex="1" parent="1">
          <mxGeometry x="373.5" y="-630" width="40" height="40" as="geometry" />
        </mxCell>
        <mxCell id="2d90y7z-7FwRkJ-Qai8M-19" value="&lt;font size=&quot;1&quot; face=&quot;Times New Roman&quot;&gt;&lt;b style=&quot;font-size: 15px;&quot;&gt;1.4&lt;/b&gt;&lt;/font&gt;" style="ellipse;whiteSpace=wrap;html=1;fillColor=#e1d5e7;strokeColor=#9673a6;strokeWidth=2;align=center;verticalAlign=middle;spacing=0;spacingTop=-4;" vertex="1" parent="1">
          <mxGeometry x="520" y="-569" width="40" height="40" as="geometry" />
        </mxCell>
        <mxCell id="2d90y7z-7FwRkJ-Qai8M-20" value="&lt;font face=&quot;Times New Roman&quot;&gt;&lt;span style=&quot;font-size: 15px;&quot;&gt;&lt;b&gt;0.9&lt;/b&gt;&lt;/span&gt;&lt;/font&gt;" style="ellipse;whiteSpace=wrap;html=1;fillColor=#d5e8d4;strokeColor=#82b366;strokeWidth=2;align=center;verticalAlign=middle;spacing=0;spacingTop=-4;" vertex="1" parent="1">
          <mxGeometry x="480" y="-670" width="40" height="40" as="geometry" />
        </mxCell>
        <mxCell id="2d90y7z-7FwRkJ-Qai8M-85" value="" style="group;rotation=-50;" vertex="1" connectable="0" parent="1">
          <mxGeometry x="330" y="-571.5" width="40" height="15" as="geometry" />
        </mxCell>
        <mxCell id="2d90y7z-7FwRkJ-Qai8M-86" value="" style="group;rotation=-50;" vertex="1" connectable="0" parent="2d90y7z-7FwRkJ-Qai8M-85">
          <mxGeometry width="40" height="15" as="geometry" />
        </mxCell>
        <mxCell id="2d90y7z-7FwRkJ-Qai8M-87" value="" style="rounded=0;whiteSpace=wrap;html=1;rotation=-50;" vertex="1" parent="2d90y7z-7FwRkJ-Qai8M-86">
          <mxGeometry width="40" height="15" as="geometry" />
        </mxCell>
        <mxCell id="2d90y7z-7FwRkJ-Qai8M-88" value="" style="endArrow=none;html=1;rounded=0;entryX=0.25;entryY=0;entryDx=0;entryDy=0;exitX=0.25;exitY=1;exitDx=0;exitDy=0;" edge="1" parent="2d90y7z-7FwRkJ-Qai8M-86" target="2d90y7z-7FwRkJ-Qai8M-87" source="2d90y7z-7FwRkJ-Qai8M-87">
          <mxGeometry width="50" height="50" relative="1" as="geometry">
            <mxPoint x="19" y="20" as="sourcePoint" />
            <mxPoint x="63" y="-9" as="targetPoint" />
          </mxGeometry>
        </mxCell>
        <mxCell id="2d90y7z-7FwRkJ-Qai8M-89" value="" style="endArrow=none;html=1;rounded=0;entryX=0.5;entryY=0;entryDx=0;entryDy=0;exitX=0.5;exitY=1;exitDx=0;exitDy=0;" edge="1" parent="2d90y7z-7FwRkJ-Qai8M-86" target="2d90y7z-7FwRkJ-Qai8M-87" source="2d90y7z-7FwRkJ-Qai8M-87">
          <mxGeometry width="50" height="50" relative="1" as="geometry">
            <mxPoint x="25" y="13" as="sourcePoint" />
            <mxPoint x="20" y="8" as="targetPoint" />
          </mxGeometry>
        </mxCell>
        <mxCell id="2d90y7z-7FwRkJ-Qai8M-90" value="" style="endArrow=none;html=1;rounded=0;entryX=0.75;entryY=0;entryDx=0;entryDy=0;exitX=0.75;exitY=1;exitDx=0;exitDy=0;" edge="1" parent="2d90y7z-7FwRkJ-Qai8M-86" target="2d90y7z-7FwRkJ-Qai8M-87" source="2d90y7z-7FwRkJ-Qai8M-87">
          <mxGeometry width="50" height="50" relative="1" as="geometry">
            <mxPoint x="32" y="5" as="sourcePoint" />
            <mxPoint x="32" y="5" as="targetPoint" />
          </mxGeometry>
        </mxCell>
        <mxCell id="2d90y7z-7FwRkJ-Qai8M-91" value="" style="endArrow=classic;html=1;rounded=0;exitX=1;exitY=0.5;exitDx=0;exitDy=0;entryX=0;entryY=1;entryDx=0;entryDy=0;" edge="1" parent="1" source="2d90y7z-7FwRkJ-Qai8M-87" target="2d90y7z-7FwRkJ-Qai8M-2">
          <mxGeometry width="50" height="50" relative="1" as="geometry">
            <mxPoint x="556" y="-680" as="sourcePoint" />
            <mxPoint x="490" y="-680" as="targetPoint" />
          </mxGeometry>
        </mxCell>
        <mxCell id="2d90y7z-7FwRkJ-Qai8M-92" value="" style="endArrow=classic;html=1;rounded=0;entryX=0;entryY=0.5;entryDx=0;entryDy=0;exitX=1;exitY=0;exitDx=0;exitDy=0;" edge="1" parent="1" target="2d90y7z-7FwRkJ-Qai8M-87" source="2d90y7z-7FwRkJ-Qai8M-1">
          <mxGeometry width="50" height="50" relative="1" as="geometry">
            <mxPoint x="372" y="-689" as="sourcePoint" />
            <mxPoint x="-64" y="1136" as="targetPoint" />
          </mxGeometry>
        </mxCell>
        <mxCell id="2d90y7z-7FwRkJ-Qai8M-93" value="&lt;font size=&quot;1&quot; face=&quot;Times New Roman&quot;&gt;&lt;b style=&quot;font-size: 15px;&quot;&gt;1.3&lt;/b&gt;&lt;/font&gt;" style="ellipse;whiteSpace=wrap;html=1;fillColor=#f8cecc;strokeColor=#b85450;strokeWidth=2;align=center;verticalAlign=middle;spacing=0;spacingTop=-4;" vertex="1" parent="1">
          <mxGeometry x="276" y="-696" width="40" height="40" as="geometry" />
        </mxCell>
        <mxCell id="2d90y7z-7FwRkJ-Qai8M-104" value="" style="group;rotation=-140;" vertex="1" connectable="0" parent="1">
          <mxGeometry x="320" y="-645" width="40" height="15" as="geometry" />
        </mxCell>
        <mxCell id="2d90y7z-7FwRkJ-Qai8M-105" value="" style="group;rotation=-140;" vertex="1" connectable="0" parent="2d90y7z-7FwRkJ-Qai8M-104">
          <mxGeometry width="40" height="15" as="geometry" />
        </mxCell>
        <mxCell id="2d90y7z-7FwRkJ-Qai8M-106" value="" style="rounded=0;whiteSpace=wrap;html=1;rotation=-140;" vertex="1" parent="2d90y7z-7FwRkJ-Qai8M-105">
          <mxGeometry width="40" height="15" as="geometry" />
        </mxCell>
        <mxCell id="2d90y7z-7FwRkJ-Qai8M-107" value="" style="endArrow=none;html=1;rounded=0;entryX=0.25;entryY=0;entryDx=0;entryDy=0;" edge="1" parent="2d90y7z-7FwRkJ-Qai8M-105" target="2d90y7z-7FwRkJ-Qai8M-106">
          <mxGeometry width="50" height="50" relative="1" as="geometry">
            <mxPoint x="33" y="8" as="sourcePoint" />
            <mxPoint x="4" y="-35" as="targetPoint" />
          </mxGeometry>
        </mxCell>
        <mxCell id="2d90y7z-7FwRkJ-Qai8M-108" value="" style="endArrow=none;html=1;rounded=0;entryX=0.5;entryY=0;entryDx=0;entryDy=0;" edge="1" parent="2d90y7z-7FwRkJ-Qai8M-105" target="2d90y7z-7FwRkJ-Qai8M-106">
          <mxGeometry width="50" height="50" relative="1" as="geometry">
            <mxPoint x="25" y="2" as="sourcePoint" />
            <mxPoint x="20" y="7" as="targetPoint" />
          </mxGeometry>
        </mxCell>
        <mxCell id="2d90y7z-7FwRkJ-Qai8M-109" value="" style="endArrow=none;html=1;rounded=0;entryX=0.75;entryY=0;entryDx=0;entryDy=0;" edge="1" parent="2d90y7z-7FwRkJ-Qai8M-105" target="2d90y7z-7FwRkJ-Qai8M-106">
          <mxGeometry width="50" height="50" relative="1" as="geometry">
            <mxPoint x="17" y="-5" as="sourcePoint" />
            <mxPoint x="17" y="-5" as="targetPoint" />
          </mxGeometry>
        </mxCell>
        <mxCell id="2d90y7z-7FwRkJ-Qai8M-110" value="" style="endArrow=classic;html=1;rounded=0;exitX=1;exitY=0.5;exitDx=0;exitDy=0;entryX=1;entryY=1;entryDx=0;entryDy=0;" edge="1" parent="1" source="2d90y7z-7FwRkJ-Qai8M-106" target="2d90y7z-7FwRkJ-Qai8M-93">
          <mxGeometry width="50" height="50" relative="1" as="geometry">
            <mxPoint x="628" y="-574" as="sourcePoint" />
            <mxPoint x="451" y="-490" as="targetPoint" />
          </mxGeometry>
        </mxCell>
        <mxCell id="2d90y7z-7FwRkJ-Qai8M-111" value="" style="endArrow=classic;html=1;rounded=0;entryX=0;entryY=0.5;entryDx=0;entryDy=0;exitX=0;exitY=0.5;exitDx=0;exitDy=0;" edge="1" parent="1" target="2d90y7z-7FwRkJ-Qai8M-106" source="2d90y7z-7FwRkJ-Qai8M-2">
          <mxGeometry width="50" height="50" relative="1" as="geometry">
            <mxPoint x="376" y="-432" as="sourcePoint" />
            <mxPoint x="8" y="1242" as="targetPoint" />
          </mxGeometry>
        </mxCell>
        <mxCell id="2d90y7z-7FwRkJ-Qai8M-112" value="" style="group;rotation=-15;" vertex="1" connectable="0" parent="1">
          <mxGeometry x="420" y="-645" width="40" height="15" as="geometry" />
        </mxCell>
        <mxCell id="2d90y7z-7FwRkJ-Qai8M-113" value="" style="group;rotation=-15;" vertex="1" connectable="0" parent="2d90y7z-7FwRkJ-Qai8M-112">
          <mxGeometry width="40" height="15" as="geometry" />
        </mxCell>
        <mxCell id="2d90y7z-7FwRkJ-Qai8M-114" value="" style="rounded=0;whiteSpace=wrap;html=1;rotation=-15;" vertex="1" parent="2d90y7z-7FwRkJ-Qai8M-113">
          <mxGeometry width="40" height="15" as="geometry" />
        </mxCell>
        <mxCell id="2d90y7z-7FwRkJ-Qai8M-115" value="" style="endArrow=none;html=1;rounded=0;entryX=0.25;entryY=0;entryDx=0;entryDy=0;exitX=0.25;exitY=1;exitDx=0;exitDy=0;" edge="1" parent="2d90y7z-7FwRkJ-Qai8M-113" target="2d90y7z-7FwRkJ-Qai8M-114" source="2d90y7z-7FwRkJ-Qai8M-114">
          <mxGeometry width="50" height="50" relative="1" as="geometry">
            <mxPoint x="12" y="18" as="sourcePoint" />
            <mxPoint x="65" y="19" as="targetPoint" />
          </mxGeometry>
        </mxCell>
        <mxCell id="2d90y7z-7FwRkJ-Qai8M-116" value="" style="endArrow=none;html=1;rounded=0;entryX=0.5;entryY=0;entryDx=0;entryDy=0;exitX=0.5;exitY=1;exitDx=0;exitDy=0;" edge="1" parent="2d90y7z-7FwRkJ-Qai8M-113" target="2d90y7z-7FwRkJ-Qai8M-114" source="2d90y7z-7FwRkJ-Qai8M-114">
          <mxGeometry width="50" height="50" relative="1" as="geometry">
            <mxPoint x="22" y="14" as="sourcePoint" />
            <mxPoint x="20" y="8" as="targetPoint" />
          </mxGeometry>
        </mxCell>
        <mxCell id="2d90y7z-7FwRkJ-Qai8M-117" value="" style="endArrow=none;html=1;rounded=0;entryX=0.75;entryY=0;entryDx=0;entryDy=0;exitX=0.75;exitY=1;exitDx=0;exitDy=0;" edge="1" parent="2d90y7z-7FwRkJ-Qai8M-113" target="2d90y7z-7FwRkJ-Qai8M-114" source="2d90y7z-7FwRkJ-Qai8M-114">
          <mxGeometry width="50" height="50" relative="1" as="geometry">
            <mxPoint x="31" y="12" as="sourcePoint" />
            <mxPoint x="31" y="12" as="targetPoint" />
          </mxGeometry>
        </mxCell>
        <mxCell id="2d90y7z-7FwRkJ-Qai8M-118" value="" style="endArrow=classic;html=1;rounded=0;exitX=1;exitY=0.5;exitDx=0;exitDy=0;entryX=0;entryY=0.5;entryDx=0;entryDy=0;" edge="1" parent="1" source="2d90y7z-7FwRkJ-Qai8M-114" target="2d90y7z-7FwRkJ-Qai8M-20">
          <mxGeometry width="50" height="50" relative="1" as="geometry">
            <mxPoint x="666" y="-787" as="sourcePoint" />
            <mxPoint x="489" y="-703" as="targetPoint" />
          </mxGeometry>
        </mxCell>
        <mxCell id="2d90y7z-7FwRkJ-Qai8M-119" value="" style="endArrow=classic;html=1;rounded=0;entryX=0;entryY=0.5;entryDx=0;entryDy=0;exitX=1;exitY=0;exitDx=0;exitDy=0;" edge="1" parent="1" target="2d90y7z-7FwRkJ-Qai8M-114" source="2d90y7z-7FwRkJ-Qai8M-2">
          <mxGeometry width="50" height="50" relative="1" as="geometry">
            <mxPoint x="414" y="-645" as="sourcePoint" />
            <mxPoint x="46" y="1029" as="targetPoint" />
          </mxGeometry>
        </mxCell>
        <mxCell id="2d90y7z-7FwRkJ-Qai8M-120" value="" style="group;rotation=-195;" vertex="1" connectable="0" parent="1">
          <mxGeometry x="394" y="-584" width="40" height="15" as="geometry" />
        </mxCell>
        <mxCell id="2d90y7z-7FwRkJ-Qai8M-121" value="" style="group;rotation=-195;" vertex="1" connectable="0" parent="2d90y7z-7FwRkJ-Qai8M-120">
          <mxGeometry width="40" height="15" as="geometry" />
        </mxCell>
        <mxCell id="2d90y7z-7FwRkJ-Qai8M-122" value="" style="rounded=0;whiteSpace=wrap;html=1;rotation=-195;" vertex="1" parent="2d90y7z-7FwRkJ-Qai8M-121">
          <mxGeometry width="40" height="15" as="geometry" />
        </mxCell>
        <mxCell id="2d90y7z-7FwRkJ-Qai8M-123" value="" style="endArrow=none;html=1;rounded=0;entryX=0.25;entryY=0;entryDx=0;entryDy=0;" edge="1" parent="2d90y7z-7FwRkJ-Qai8M-121" target="2d90y7z-7FwRkJ-Qai8M-122">
          <mxGeometry width="50" height="50" relative="1" as="geometry">
            <mxPoint x="28" y="-2" as="sourcePoint" />
            <mxPoint x="-24" y="-4" as="targetPoint" />
          </mxGeometry>
        </mxCell>
        <mxCell id="2d90y7z-7FwRkJ-Qai8M-124" value="" style="endArrow=none;html=1;rounded=0;entryX=0.5;entryY=0;entryDx=0;entryDy=0;" edge="1" parent="2d90y7z-7FwRkJ-Qai8M-121" target="2d90y7z-7FwRkJ-Qai8M-122">
          <mxGeometry width="50" height="50" relative="1" as="geometry">
            <mxPoint x="18" as="sourcePoint" />
            <mxPoint x="20" y="7" as="targetPoint" />
          </mxGeometry>
        </mxCell>
        <mxCell id="2d90y7z-7FwRkJ-Qai8M-125" value="" style="endArrow=none;html=1;rounded=0;entryX=0.75;entryY=0;entryDx=0;entryDy=0;" edge="1" parent="2d90y7z-7FwRkJ-Qai8M-121" target="2d90y7z-7FwRkJ-Qai8M-122">
          <mxGeometry width="50" height="50" relative="1" as="geometry">
            <mxPoint x="9" y="3" as="sourcePoint" />
            <mxPoint x="9" y="3" as="targetPoint" />
          </mxGeometry>
        </mxCell>
        <mxCell id="2d90y7z-7FwRkJ-Qai8M-126" value="" style="endArrow=classic;html=1;rounded=0;exitX=1;exitY=0.5;exitDx=0;exitDy=0;entryX=1.003;entryY=0.627;entryDx=0;entryDy=0;entryPerimeter=0;" edge="1" parent="1" source="2d90y7z-7FwRkJ-Qai8M-122" target="2d90y7z-7FwRkJ-Qai8M-1">
          <mxGeometry width="50" height="50" relative="1" as="geometry">
            <mxPoint x="642" y="-668.5" as="sourcePoint" />
            <mxPoint x="465" y="-584.5" as="targetPoint" />
          </mxGeometry>
        </mxCell>
        <mxCell id="2d90y7z-7FwRkJ-Qai8M-127" value="" style="endArrow=classic;html=1;rounded=0;entryX=0;entryY=0.5;entryDx=0;entryDy=0;exitX=0.076;exitY=0.745;exitDx=0;exitDy=0;exitPerimeter=0;" edge="1" parent="1" target="2d90y7z-7FwRkJ-Qai8M-122" source="2d90y7z-7FwRkJ-Qai8M-20">
          <mxGeometry width="50" height="50" relative="1" as="geometry">
            <mxPoint x="390" y="-526.5" as="sourcePoint" />
            <mxPoint x="22" y="1147.5" as="targetPoint" />
          </mxGeometry>
        </mxCell>
        <mxCell id="2d90y7z-7FwRkJ-Qai8M-128" value="" style="group;rotation=70;" vertex="1" connectable="0" parent="1">
          <mxGeometry x="500" y="-605" width="40" height="15" as="geometry" />
        </mxCell>
        <mxCell id="2d90y7z-7FwRkJ-Qai8M-129" value="" style="group;rotation=70;" vertex="1" connectable="0" parent="2d90y7z-7FwRkJ-Qai8M-128">
          <mxGeometry width="40" height="15" as="geometry" />
        </mxCell>
        <mxCell id="2d90y7z-7FwRkJ-Qai8M-130" value="" style="rounded=0;whiteSpace=wrap;html=1;rotation=70;" vertex="1" parent="2d90y7z-7FwRkJ-Qai8M-129">
          <mxGeometry width="40" height="15" as="geometry" />
        </mxCell>
        <mxCell id="2d90y7z-7FwRkJ-Qai8M-131" value="" style="endArrow=none;html=1;rounded=0;entryX=0.25;entryY=0;entryDx=0;entryDy=0;exitX=0.25;exitY=1;exitDx=0;exitDy=0;" edge="1" parent="2d90y7z-7FwRkJ-Qai8M-129" target="2d90y7z-7FwRkJ-Qai8M-130" source="2d90y7z-7FwRkJ-Qai8M-130">
          <mxGeometry width="50" height="50" relative="1" as="geometry">
            <mxPoint x="10" y="1" as="sourcePoint" />
            <mxPoint x="13" y="53" as="targetPoint" />
          </mxGeometry>
        </mxCell>
        <mxCell id="2d90y7z-7FwRkJ-Qai8M-132" value="" style="endArrow=none;html=1;rounded=0;entryX=0.5;entryY=0;entryDx=0;entryDy=0;exitX=0.5;exitY=1;exitDx=0;exitDy=0;" edge="1" parent="2d90y7z-7FwRkJ-Qai8M-129" target="2d90y7z-7FwRkJ-Qai8M-130" source="2d90y7z-7FwRkJ-Qai8M-130">
          <mxGeometry width="50" height="50" relative="1" as="geometry">
            <mxPoint x="13" y="9" as="sourcePoint" />
            <mxPoint x="20" y="7" as="targetPoint" />
          </mxGeometry>
        </mxCell>
        <mxCell id="2d90y7z-7FwRkJ-Qai8M-133" value="" style="endArrow=none;html=1;rounded=0;entryX=0.75;entryY=0;entryDx=0;entryDy=0;exitX=0.75;exitY=1;exitDx=0;exitDy=0;" edge="1" parent="2d90y7z-7FwRkJ-Qai8M-129" target="2d90y7z-7FwRkJ-Qai8M-130" source="2d90y7z-7FwRkJ-Qai8M-130">
          <mxGeometry width="50" height="50" relative="1" as="geometry">
            <mxPoint x="16" y="19" as="sourcePoint" />
            <mxPoint x="16" y="19" as="targetPoint" />
          </mxGeometry>
        </mxCell>
        <mxCell id="2d90y7z-7FwRkJ-Qai8M-140" value="" style="endArrow=classic;html=1;rounded=0;entryX=0;entryY=0.5;entryDx=0;entryDy=0;exitX=0.689;exitY=0.99;exitDx=0;exitDy=0;exitPerimeter=0;" edge="1" parent="1" source="2d90y7z-7FwRkJ-Qai8M-20" target="2d90y7z-7FwRkJ-Qai8M-130">
          <mxGeometry width="50" height="50" relative="1" as="geometry">
            <mxPoint x="526" y="-626" as="sourcePoint" />
            <mxPoint x="438" y="-568" as="targetPoint" />
          </mxGeometry>
        </mxCell>
        <mxCell id="2d90y7z-7FwRkJ-Qai8M-141" value="" style="endArrow=classic;html=1;rounded=0;exitX=1;exitY=0.5;exitDx=0;exitDy=0;entryX=0.293;entryY=0.051;entryDx=0;entryDy=0;entryPerimeter=0;" edge="1" parent="1" source="2d90y7z-7FwRkJ-Qai8M-130" target="2d90y7z-7FwRkJ-Qai8M-19">
          <mxGeometry width="50" height="50" relative="1" as="geometry">
            <mxPoint x="536" y="-616" as="sourcePoint" />
            <mxPoint x="530" y="-570" as="targetPoint" />
          </mxGeometry>
        </mxCell>
      </root>
    </mxGraphModel>
  </diagram>
</mxfile>
